<svg xmlns="http://www.w3.org/2000/svg" viewBox="0 0 512 512">
  <defs>
    <linearGradient id="bg" x1="64" y1="44" x2="448" y2="468" gradientUnits="userSpaceOnUse">
      <stop offset="0" stop-color="#f7fbf8"/>
      <stop offset="0.48" stop-color="#dbece8"/>
      <stop offset="1" stop-color="#d6c7e6"/>
    </linearGradient>
    <linearGradient id="mark" x1="166" y1="132" x2="360" y2="374" gradientUnits="userSpaceOnUse">
      <stop offset="0" stop-color="#2d6876"/>
      <stop offset="0.58" stop-color="#8a72a4"/>
      <stop offset="1" stop-color="#b56f45"/>
    </linearGradient>
  </defs>
  <rect width="512" height="512" rx="112" fill="url(#bg)"/>
  <circle cx="256" cy="256" r="188" fill="rgba(255,255,255,0.42)" stroke="rgba(45,104,118,0.18)" stroke-width="10"/>
  <path d="M314 128v183c0 45-38 77-84 77-42 0-74-24-74-58 0-36 36-62 80-62 14 0 28 3 39 8V168c0-13 8-25 21-29l86-28c17-6 34 7 34 25v29c0 12-8 23-19 27l-83 27z" fill="url(#mark)"/>
  <path d="M150 211c32-25 68-37 108-37 39 0 76 12 108 37" fill="none" stroke="#2d6876" stroke-width="18" stroke-linecap="round" opacity="0.28"/>
  <path d="M137 258c35-22 76-34 121-34 44 0 86 12 121 34" fill="none" stroke="#b56f45" stroke-width="16" stroke-linecap="round" opacity="0.22"/>
</svg>
