<svg xmlns="http://www.w3.org/2000/svg" viewBox="0 0 512 512">
  <defs>
    <linearGradient id="sky" x1="66" y1="48" x2="448" y2="466" gradientUnits="userSpaceOnUse">
      <stop offset="0" stop-color="#82b8cf"/>
      <stop offset="0.42" stop-color="#8ccdc1"/>
      <stop offset="1" stop-color="#c2b7e8"/>
    </linearGradient>
    <radialGradient id="glow" cx="0" cy="0" r="1" gradientUnits="userSpaceOnUse" gradientTransform="translate(230 206) rotate(53) scale(228)">
      <stop offset="0" stop-color="#ffffff" stop-opacity="0.72"/>
      <stop offset="0.58" stop-color="#ffffff" stop-opacity="0.18"/>
      <stop offset="1" stop-color="#ffffff" stop-opacity="0"/>
    </radialGradient>
    <filter id="softShadow" x="-20%" y="-20%" width="140%" height="150%">
      <feDropShadow dx="0" dy="18" stdDeviation="18" flood-color="#2d6876" flood-opacity="0.22"/>
    </filter>
  </defs>
  <rect width="512" height="512" rx="118" fill="url(#sky)"/>
  <circle cx="256" cy="256" r="220" fill="url(#glow)"/>
  <path d="M96 302c50-56 111-76 183-58 54 14 93 5 137-38" fill="none" stroke="#ffffff" stroke-width="22" stroke-linecap="round" opacity="0.32"/>
  <path d="M72 352c60-45 122-58 187-38 53 16 102 8 156-26" fill="none" stroke="#ffffff" stroke-width="17" stroke-linecap="round" opacity="0.22"/>
  <path d="M147 236c18-30 48-47 84-47 12-31 42-53 78-53 43 0 78 30 86 70 30 8 52 35 52 68 0 40-33 73-75 73H155c-39 0-70-29-70-65 0-34 26-61 62-66z" fill="#ffffff" opacity="0.88" filter="url(#softShadow)"/>
  <path d="M315 126v184c0 45-39 78-86 78-43 0-77-25-77-60 0-37 37-64 83-64 14 0 28 3 40 9V165c0-12 8-23 19-27l82-28c18-6 36 7 36 26v34c0 12-8 23-20 27l-77 25z" fill="#ffffff" filter="url(#softShadow)"/>
  <path d="M315 126v184c0 45-39 78-86 78-43 0-77-25-77-60 0-37 37-64 83-64 14 0 28 3 40 9V165c0-12 8-23 19-27l82-28c18-6 36 7 36 26v34c0 12-8 23-20 27l-77 25z" fill="#ffffff" opacity="0.92"/>
  <path d="M120 178c22-18 47-28 75-30" fill="none" stroke="#ffffff" stroke-width="16" stroke-linecap="round" opacity="0.56"/>
  <path d="M91 222c28-15 56-22 86-21" fill="none" stroke="#ffffff" stroke-width="12" stroke-linecap="round" opacity="0.44"/>
  <circle cx="395" cy="122" r="12" fill="#ffffff" opacity="0.78"/>
  <circle cx="428" cy="154" r="7" fill="#ffffff" opacity="0.62"/>
</svg>
